<svg width="16" height="25" viewBox="0 0 16 25" fill="none" xmlns="http://www.w3.org/2000/svg">
<path d="M16 8.03571C16 3.59933 12.4167 0 8 0C3.58333 0 0 3.59933 0 8.03571C0 11.8583 2.66111 15.0614 6.22222 15.8705V18.75H4.22222C3.85556 18.75 3.55556 19.0513 3.55556 19.4196V21.6518C3.55556 22.0201 3.85556 22.3214 4.22222 22.3214H6.22222V24.3304C6.22222 24.6987 6.52222 25 6.88889 25H9.11111C9.47778 25 9.77778 24.6987 9.77778 24.3304V22.3214H11.7778C12.1444 22.3214 12.4444 22.0201 12.4444 21.6518V19.4196C12.4444 19.0513 12.1444 18.75 11.7778 18.75H9.77778V15.8705C13.3389 15.0614 16 11.8583 16 8.03571ZM3.55556 8.03571C3.55556 5.57478 5.55 3.57143 8 3.57143C10.45 3.57143 12.4444 5.57478 12.4444 8.03571C12.4444 10.4967 10.45 12.5 8 12.5C5.55 12.5 3.55556 10.4967 3.55556 8.03571Z" fill="white"/>
</svg>
