<svg width="16" height="25" viewBox="0 0 16 25" fill="none" xmlns="http://www.w3.org/2000/svg">
<path d="M12.8851 12.157C11.8417 11.1171 10.5676 10.4429 9.22535 10.1398V8.81239H10.274C10.62 8.81239 10.9032 8.53018 10.9032 8.18526V6.09485C10.9032 5.74993 10.62 5.46773 10.274 5.46773H9.22535V4.17168H10.4785C11.0395 4.17168 11.3174 3.49752 10.9241 3.10034L7.99321 0.184217C7.74678 -0.0614058 7.3483 -0.0614058 7.10187 0.184217L4.17094 3.10557C3.77246 3.50274 4.05559 4.1769 4.61661 4.1769H5.86972V5.46773H4.82109C4.47504 5.46773 4.19191 5.74993 4.19191 6.09485V8.18526C4.19191 8.53018 4.47504 8.81239 4.82109 8.81239H5.86972V10.1398C4.52747 10.4429 3.25338 11.1171 2.20999 12.157C-0.736665 15.0941 -0.736665 19.8602 2.20999 22.7972C5.15665 25.7343 9.93842 25.7343 12.8851 22.7972C15.837 19.8602 15.837 15.0941 12.8851 12.157ZM10.5152 20.4351C8.8793 22.0656 6.22102 22.0656 4.58515 20.4351C2.94928 18.8045 2.94928 16.155 4.58515 14.5244C6.22102 12.8939 8.8793 12.8939 10.5152 14.5244C12.151 16.1497 12.151 18.8045 10.5152 20.4351Z" fill="white"/>
</svg>
